REM MD5 4dc27af095f6ea6b8218a0425027396a
FILE "Super Puzzle Fighter II Turbo (USA).bin" BINARY
  TRACK 01 MODE2/2352
    INDEX 01 00:00:00
  TRACK 02 AUDIO
    INDEX 00 49:28:54
    INDEX 01 49:30:54
  TRACK 03 AUDIO
    INDEX 00 53:45:54
    INDEX 01 53:47:54
REM LEADOUT 57:17:54
